<svg width="93" height="110" viewBox="0 0 93 110" fill="none" xmlns="http://www.w3.org/2000/svg">
<g filter="url(#filter0_n_554_219)">
<path fill-rule="evenodd" clip-rule="evenodd" d="M92.5 65C92.4127 65.8098 92.3255 66.595 92.2357 67.3585C92.1429 68.1473 92.0473 68.9129 91.9458 69.6586C92.0918 69.054 92.2099 68.4408 92.299 67.82C92.4317 66.8958 92.5 65.9547 92.5 65ZM48.3326 108.42C48.5212 108.406 48.7051 108.401 48.8785 108.389C48.1133 108.452 47.1883 108.527 46.4834 108.527C47.0505 108.512 47.7203 108.464 48.3326 108.42ZM0.560411 69.847C0.567206 69.8962 0.574029 69.9453 0.580879 69.9944C1.07455 73.5292 1.71241 76.6197 2.82542 79.6167C1.50681 76.5627 0.66419 73.317 0.580879 69.9944C0.579967 69.958 0.579144 69.9216 0.578415 69.8853L0.560411 69.847Z" fill="url(#paint0_linear_554_219)"/>
<path fill-rule="evenodd" clip-rule="evenodd" d="M92.2357 67.3585C92.1429 68.1473 92.0473 68.9129 91.9458 69.6586C92.0918 69.054 92.2099 68.4408 92.299 67.82C92.2793 67.6655 92.2582 67.5116 92.2357 67.3585ZM46.4834 108.527C47.1883 108.527 48.1133 108.452 48.8785 108.389C48.7981 108.395 48.7351 108.399 48.6509 108.403C48.5533 108.408 48.4338 108.413 48.3326 108.42C47.7203 108.464 47.0505 108.512 46.4834 108.527ZM49.2521 108.361C49.2256 108.363 49.1985 108.363 49.1713 108.366C49.1668 108.366 49.1623 108.366 49.1579 108.367C49.1474 108.368 49.1393 108.37 49.1303 108.371C49.1235 108.371 49.1111 108.372 49.1017 108.373L49.0824 108.373L49.0576 108.375C49.0659 108.374 49.0742 108.374 49.0824 108.373C49.0888 108.373 49.0953 108.373 49.1017 108.373C49.1096 108.372 49.1225 108.371 49.1303 108.371C49.1396 108.37 49.1487 108.368 49.1579 108.367C49.1623 108.366 49.1668 108.366 49.1713 108.366C49.1985 108.363 49.2256 108.363 49.2521 108.361ZM0 65C0.17744 66.6464 0.354453 68.1911 0.55415 69.6586C0.190843 68.1541 0 66.596 0 65Z" fill="url(#paint1_linear_554_219)"/>
<path fill-rule="evenodd" clip-rule="evenodd" d="M49.1579 108.367C49.1487 108.368 49.1396 108.37 49.1303 108.371C49.1225 108.371 49.1096 108.372 49.1017 108.373C49.0953 108.373 49.0888 108.373 49.0824 108.373C49.0742 108.374 49.0659 108.374 49.0576 108.375C49.0386 108.376 49.0196 108.379 49.0003 108.381C48.9933 108.381 48.9863 108.382 48.9793 108.383C48.9461 108.386 48.9124 108.387 48.8785 108.389C48.7051 108.401 48.5212 108.406 48.3326 108.42C48.4338 108.413 48.5533 108.408 48.6509 108.403C48.7351 108.399 48.7981 108.395 48.8785 108.389C48.9124 108.387 48.9461 108.386 48.9793 108.383C48.9863 108.382 48.9933 108.381 49.0003 108.381C49.0196 108.379 49.0386 108.376 49.0576 108.375C49.0621 108.374 49.0725 108.374 49.0824 108.373C49.0904 108.373 49.0981 108.373 49.1017 108.373C49.1111 108.372 49.1235 108.371 49.1303 108.371C49.1393 108.37 49.1474 108.368 49.1579 108.367Z" fill="url(#paint2_linear_554_219)"/>
<path fill-rule="evenodd" clip-rule="evenodd" d="M48.8785 108.389C48.9058 108.388 48.9525 108.385 48.9793 108.383C48.9815 108.383 48.9771 108.383 48.9793 108.383C48.9863 108.382 48.9933 108.381 49.0003 108.381C49.0196 108.378 49.0351 108.376 49.0576 108.375C49.0659 108.374 49.0742 108.374 49.0824 108.373C49.0888 108.373 49.0953 108.373 49.1017 108.373C49.1096 108.372 49.1225 108.371 49.1303 108.371C49.1396 108.37 49.1487 108.368 49.1579 108.367C49.1623 108.366 49.1668 108.366 49.1713 108.366C49.1985 108.363 49.2256 108.363 49.2521 108.361C49.2251 108.363 49.197 108.363 49.1713 108.366C49.1689 108.366 49.1736 108.365 49.1713 108.366M48.8785 108.389C48.7981 108.395 48.7351 108.399 48.6509 108.403C48.5533 108.408 48.4338 108.413 48.3326 108.42" fill="url(#paint3_linear_554_219)"/>
<path fill-rule="evenodd" clip-rule="evenodd" d="M48.8785 108.389C48.9124 108.387 48.9461 108.386 48.9793 108.383C48.9863 108.382 48.9933 108.381 49.0003 108.381C49.0196 108.379 49.0386 108.376 49.0576 108.375C49.064 108.374 49.0728 108.374 49.0824 108.373C49.0888 108.373 49.0953 108.373 49.1017 108.373C49.1111 108.372 49.1235 108.371 49.1303 108.371C49.144 108.369 49.1493 108.368 49.1579 108.367C49.1623 108.366 49.1668 108.366 49.1713 108.366C49.1919 108.364 49.2319 108.363 49.2521 108.361C49.269 108.359 49.2781 108.357 49.2906 108.356C49.2778 108.357 49.2651 108.36 49.2521 108.361C49.2256 108.363 49.1985 108.363 49.1713 108.366C49.1668 108.366 49.1623 108.366 49.1579 108.367C49.1487 108.368 49.1396 108.37 49.1303 108.371C49.1225 108.371 49.1096 108.372 49.1017 108.373C49.0953 108.373 49.0888 108.373 49.0824 108.373C49.0742 108.374 49.0659 108.374 49.0576 108.375C49.0386 108.376 49.0196 108.379 49.0003 108.381C48.9933 108.381 48.9863 108.382 48.9793 108.383C48.9461 108.386 48.9124 108.387 48.8785 108.389C48.7051 108.401 48.5212 108.406 48.3326 108.42C48.4338 108.413 48.5533 108.408 48.6509 108.403C48.7351 108.399 48.7981 108.395 48.8785 108.389ZM49.0576 108.375L49.0003 108.381L48.9793 108.383C48.9863 108.382 48.9933 108.381 49.0003 108.381C49.0196 108.378 49.0351 108.376 49.0576 108.375Z" fill="url(#paint4_linear_554_219)"/>
<path fill-rule="evenodd" clip-rule="evenodd" d="M0.560411 69.847L0.580879 69.9944L0.578415 69.8853L0.560411 69.847ZM49.0576 108.375C49.0481 108.375 49.0386 108.377 49.029 108.378C49.0204 108.379 49.009 108.38 49.0003 108.381C48.9968 108.381 48.9933 108.381 48.9898 108.382C48.9863 108.382 48.9828 108.383 48.9793 108.383C48.9582 108.385 48.9369 108.386 48.9154 108.387C48.906 108.388 48.8879 108.389 48.8785 108.389C48.8805 108.389 48.8762 108.39 48.8785 108.389C48.7981 108.395 48.7156 108.399 48.6313 108.403C48.5337 108.408 48.4338 108.413 48.3326 108.42C48.6861 108.395 49.0209 108.37 49.3065 108.355C49.3035 108.355 49.2931 108.356 49.2906 108.356C49.293 108.356 49.2878 108.356 49.2906 108.356C49.2842 108.357 49.2778 108.357 49.2714 108.358C49.2752 108.358 49.268 108.359 49.2714 108.358M49.2714 108.358C49.2692 108.359 49.2735 108.358 49.2714 108.358L49.2521 108.361C49.2381 108.362 49.2146 108.363 49.1945 108.364L49.1713 108.366C49.169 108.366 49.1601 108.367 49.1579 108.367C49.1601 108.367 49.1557 108.367 49.1579 108.367M49.0824 108.373L49.0576 108.375ZM49.0824 108.373C49.0888 108.373 49.0953 108.373 49.1017 108.373ZM49.1303 108.371C49.1235 108.371 49.1111 108.372 49.1017 108.373Z" fill="url(#paint5_linear_554_219)"/>
<path fill-rule="evenodd" clip-rule="evenodd" d="M0 65C0.17744 66.6464 0.354453 68.1911 0.55415 69.6586L0.560411 69.847C0.873491 62.283 4.24359 56.2293 9.42998 52.6341C11.1782 51.4223 13.1327 50.4898 15.2461 49.8729C17.2067 49.3006 19.3039 49 21.5 49C27.9026 49 33.636 51.8653 37.4878 56.3836C36.8462 54.3706 36.5 52.2257 36.5 50C36.5 42.545 40.3847 35.9972 46.2402 32.2707C49.4943 30.1997 53.357 29 57.5 29C63.3521 29 68.6451 31.3938 72.4533 35.2556C71.827 33.2486 71.5 31.1412 71.5 29C71.5 27.0884 71.8806 25.0763 72.533 23.1057C73.6367 19.7721 75.5182 16.5576 77.6507 14.1508C77.4231 13.8582 77.1905 13.5698 76.9531 13.2858C69.7481 4.66524 58.1223 0 46 0C33.6187 0 22.585 5.76955 15.4407 14.7668C15.2481 14.5579 15.0509 14.3525 14.8492 14.1508C10.911 10.2125 5.56955 8 0 8V65Z" fill="url(#paint6_linear_554_219)"/>
<path fill-rule="evenodd" clip-rule="evenodd" d="M0 65C0.17744 66.6464 0.354453 68.1911 0.55415 69.6586L0.560411 69.847C0.873491 62.283 4.24359 56.2293 9.42998 52.6341C11.1782 51.4223 13.1327 50.4898 15.2461 49.8729C17.2067 49.3006 19.3039 49 21.5 49C27.9026 49 33.636 51.8653 37.4878 56.3836C36.8462 54.3706 36.5 52.2257 36.5 50C36.5 42.545 40.3847 35.9972 46.2402 32.2707C49.4943 30.1997 53.357 29 57.5 29C63.3521 29 68.6451 31.3938 72.4533 35.2556C71.827 33.2486 71.5 31.1412 71.5 29C71.5 27.0884 71.8806 25.0763 72.533 23.1057C73.6367 19.7721 75.5182 16.5576 77.6507 14.1508C77.4231 13.8582 77.1905 13.5698 76.9531 13.2858C69.7481 4.66524 58.1223 0 46 0C33.6187 0 22.585 5.76955 15.4407 14.7668C15.2481 14.5579 15.0509 14.3525 14.8492 14.1508C10.911 10.2125 5.56955 8 0 8V65Z" fill="url(#paint7_linear_554_219)"/>
<path fill-rule="evenodd" clip-rule="evenodd" d="M0 65C0.17744 66.6464 0.354453 68.1911 0.55415 69.6586L0.560411 69.847C0.873491 62.283 4.24359 56.2293 9.42998 52.6341C11.1782 51.4223 13.1327 50.4898 15.2461 49.8729C17.2067 49.3006 19.3039 49 21.5 49C27.9026 49 33.636 51.8653 37.4878 56.3836C36.8462 54.3706 36.5 52.2257 36.5 50C36.5 42.545 40.3847 35.9972 46.2402 32.2707C49.4943 30.1997 53.357 29 57.5 29C63.3521 29 68.6451 31.3938 72.4533 35.2556C71.827 33.2486 71.5 31.1412 71.5 29C71.5 27.0884 71.8806 25.0763 72.533 23.1057C73.6367 19.7721 75.5182 16.5576 77.6507 14.1508C77.4231 13.8582 77.1905 13.5698 76.9531 13.2858C69.7481 4.66524 58.1223 0 46 0C33.6187 0 22.585 5.76955 15.4407 14.7668C15.2481 14.5579 15.0509 14.3525 14.8492 14.1508C10.911 10.2125 5.56955 8 0 8V65Z" fill="url(#paint8_linear_554_219)"/>
<path fill-rule="evenodd" clip-rule="evenodd" d="M71.5 29C71.5 27.0884 71.8806 25.0763 72.533 23.1057C66.7821 14.5953 57.0445 9.00003 46 9.00003C28.3269 9.00003 14 23.3269 14 41C14 44.0785 14.4347 47.0555 15.2461 49.8729C17.2067 49.3006 19.3039 49 21.5 49C27.9026 49 33.636 51.8653 37.4878 56.3836C36.8462 54.3706 36.5 52.2257 36.5 50C36.5 42.545 40.3847 35.9972 46.2402 32.2707C49.4943 30.1997 53.357 29 57.5 29C63.3521 29 68.6451 31.3938 72.4533 35.2556C71.827 33.2486 71.5 31.1412 71.5 29Z" fill="url(#paint9_linear_554_219)"/>
<path fill-rule="evenodd" clip-rule="evenodd" d="M92.2357 67.3585C92.3255 66.595 92.4127 65.8098 92.5 65V8C86.9304 8 81.589 10.2125 77.6507 14.1508C75.5182 16.5576 73.6367 19.7721 72.533 23.1057C71.8806 25.0763 71.5 27.0884 71.5 29C71.5 31.1412 71.827 33.2486 72.4533 35.2556C68.6451 31.3938 63.3521 29 57.5 29C53.357 29 49.4943 30.1997 46.2402 32.2707C40.3847 35.9972 36.5 42.545 36.5 50C36.5 52.2257 36.8462 54.3706 37.4878 56.3836C33.636 51.8653 27.9026 49 21.5 49C19.3039 49 17.2067 49.3006 15.2461 49.8729C13.1327 50.4898 11.1782 51.4223 9.42998 52.6341C4.24359 56.2293 0.873491 62.283 0.560411 69.847L0.578415 69.8853L0.580879 69.9944C1.07455 73.5292 1.71241 76.6197 2.82542 79.6167C4.53101 84.2095 7.35237 88.5829 12.4804 94C19.456 100.619 24.0141 103.364 32.9804 107C37.1503 108.243 39.3191 108.8 42.9804 109C43.5448 109.044 44.3484 109.028 45.0695 109.013C45.4007 109.006 45.715 109 45.9804 109C59.2568 107.683 66.3031 104.852 76.9804 97.5C83.516 93 92.988 81.8633 92.4804 70C92.4508 69.259 92.3899 68.532 92.299 67.82C92.2099 68.4408 92.0918 69.054 91.9458 69.6586C92.0473 68.9129 92.1429 68.1473 92.2357 67.3585ZM48.8785 108.389C48.1133 108.452 47.1883 108.527 46.4834 108.527C47.0505 108.512 47.7203 108.464 48.3326 108.42C48.6861 108.395 49.0209 108.37 49.3065 108.355C49.3012 108.355 49.2959 108.356 49.2906 108.356L49.2714 108.358C49.2645 108.359 49.2621 108.36 49.2521 108.361C49.2381 108.362 49.2146 108.363 49.1945 108.364L49.1713 108.366L49.1579 108.367C49.1493 108.368 49.144 108.369 49.1303 108.371C49.1235 108.371 49.1111 108.372 49.1017 108.373L49.0824 108.373L49.0576 108.375L49.0003 108.381L48.9793 108.383C48.9525 108.385 48.9058 108.388 48.8785 108.389Z" fill="url(#paint10_linear_554_219)"/>
</g>
<defs>
<filter id="filter0_n_554_219" x="0" y="0" width="92.5" height="109.029" filterUnits="userSpaceOnUse" color-interpolation-filters="sRGB">
<feFlood flood-opacity="0" result="BackgroundImageFix"/>
<feBlend mode="normal" in="SourceGraphic" in2="BackgroundImageFix" result="shape"/>
<feTurbulence type="fractalNoise" baseFrequency="2 2" stitchTiles="stitch" numOctaves="3" result="noise" seed="8865" />
<feComponentTransfer in="noise" result="coloredNoise1">
<feFuncR type="linear" slope="2" intercept="-0.5" />
<feFuncG type="linear" slope="2" intercept="-0.5" />
<feFuncB type="linear" slope="2" intercept="-0.5" />
<feFuncA type="discrete" tableValues="0 0 0 0 0 0 0 0 0 0 0 0 0 0 0 0 0 1 1 1 1 1 1 1 1 1 1 1 1 1 1 1 1 0 0 0 0 0 0 0 0 0 0 0 0 0 0 0 0 0 0 0 0 0 0 0 0 0 0 0 0 0 0 0 0 0 0 0 0 0 0 0 0 0 0 0 0 0 0 0 0 0 0 0 0 0 0 0 0 0 0 0 0 0 0 0 0 0 0 0 "/>
</feComponentTransfer>
<feComposite operator="in" in2="shape" in="coloredNoise1" result="noise1Clipped" />
<feComponentTransfer in="noise1Clipped" result="color1">
<feFuncA type="table" tableValues="0 0.25" />
</feComponentTransfer>
<feMerge result="effect1_noise_554_219">
<feMergeNode in="shape" />
<feMergeNode in="color1" />
</feMerge>
</filter>
<linearGradient id="paint0_linear_554_219" x1="64" y1="42" x2="46.2598" y2="109.029" gradientUnits="userSpaceOnUse">
<stop offset="0.225962" stop-color="#AC97BB"/>
<stop offset="1" stop-color="#456042"/>
</linearGradient>
<linearGradient id="paint1_linear_554_219" x1="64" y1="42" x2="46.2598" y2="109.029" gradientUnits="userSpaceOnUse">
<stop stop-color="#456042"/>
<stop offset="0.774038" stop-color="#AC97BB"/>
</linearGradient>
<linearGradient id="paint2_linear_554_219" x1="64" y1="42" x2="46.2598" y2="109.029" gradientUnits="userSpaceOnUse">
<stop offset="0.225962" stop-color="#AC97BB"/>
<stop offset="1" stop-color="#456042"/>
</linearGradient>
<linearGradient id="paint3_linear_554_219" x1="64" y1="42" x2="46.2598" y2="109.029" gradientUnits="userSpaceOnUse">
<stop offset="0.225962" stop-color="#AC97BB"/>
<stop offset="1" stop-color="#456042"/>
</linearGradient>
<linearGradient id="paint4_linear_554_219" x1="64" y1="42" x2="46.2598" y2="109.029" gradientUnits="userSpaceOnUse">
<stop offset="0.225962" stop-color="#AC97BB"/>
<stop offset="1" stop-color="#456042"/>
</linearGradient>
<linearGradient id="paint5_linear_554_219" x1="64" y1="42" x2="46.2598" y2="109.029" gradientUnits="userSpaceOnUse">
<stop offset="0.225962" stop-color="#89A36E"/>
<stop offset="1" stop-color="#456042"/>
</linearGradient>
<linearGradient id="paint6_linear_554_219" x1="64" y1="42" x2="46.2598" y2="109.029" gradientUnits="userSpaceOnUse">
<stop offset="0.225962" stop-color="#89A36E"/>
<stop offset="1" stop-color="#456042"/>
</linearGradient>
<linearGradient id="paint7_linear_554_219" x1="3.15777" y1="1.63038" x2="30.3123" y2="75.7747" gradientUnits="userSpaceOnUse">
<stop offset="0.225962" stop-color="#89A36E"/>
<stop offset="1" stop-color="#456042"/>
</linearGradient>
<linearGradient id="paint8_linear_554_219" x1="63.9865" y1="36.6923" x2="43.5421" y2="108.255" gradientUnits="userSpaceOnUse">
<stop stop-color="#456042"/>
<stop offset="0.774038" stop-color="#89A36E"/>
</linearGradient>
<linearGradient id="paint9_linear_554_219" x1="46" y1="9" x2="48.7838" y2="72.8787" gradientUnits="userSpaceOnUse">
<stop offset="0.379808" stop-color="#85A8EA"/>
<stop offset="1" stop-color="#094ECE"/>
</linearGradient>
<linearGradient id="paint10_linear_554_219" x1="64" y1="42" x2="46.2598" y2="109.029" gradientUnits="userSpaceOnUse">
<stop offset="0.225962" stop-color="#89A36E"/>
<stop offset="1" stop-color="#456042"/>
</linearGradient>
</defs>
</svg>
