<svg width="93" height="110" viewBox="0 0 93 110" fill="none" xmlns="http://www.w3.org/2000/svg">
  <path fill-rule="evenodd" clip-rule="evenodd" d="M0 65C0.17744 66.6464 0.354453 68.1911 0.55415 69.6586L0.560411 69.847C0.873491 62.283 4.24359 56.2293 9.42998 52.6341C11.1782 51.4223 13.1327 50.4898 15.2461 49.8729C17.2067 49.3006 19.3039 49 21.5 49C27.9026 49 33.636 51.8653 37.4878 56.3836C36.8462 54.3706 36.5 52.2257 36.5 50C36.5 42.545 40.3847 35.9972 46.2402 32.2707C49.4943 30.1997 53.357 29 57.5 29C63.3521 29 68.6451 31.3938 72.4533 35.2556C71.827 33.2486 71.5 31.1412 71.5 29C71.5 27.0884 71.8806 25.0763 72.533 23.1057C73.6367 19.7721 75.5182 16.5576 77.6507 14.1508C77.4231 13.8582 77.1905 13.5698 76.9531 13.2858C69.7481 4.66524 58.1223 0 46 0C33.6187 0 22.585 5.76955 15.4407 14.7668C15.2481 14.5579 15.0509 14.3525 14.8492 14.1508C10.911 10.2125 5.56955 8 0 8V65Z" fill="url(#g1)"/>
  <path fill-rule="evenodd" clip-rule="evenodd" d="M71.5 29C71.5 27.0884 71.8806 25.0763 72.533 23.1057C66.7821 14.5953 57.0445 9.00003 46 9.00003C28.3269 9.00003 14 23.3269 14 41C14 44.0785 14.4347 47.0555 15.2461 49.8729C17.2067 49.3006 19.3039 49 21.5 49C27.9026 49 33.636 51.8653 37.4878 56.3836C36.8462 54.3706 36.5 52.2257 36.5 50C36.5 42.545 40.3847 35.9972 46.2402 32.2707C49.4943 30.1997 53.357 29 57.5 29C63.3521 29 68.6451 31.3938 72.4533 35.2556C71.827 33.2486 71.5 31.1412 71.5 29Z" fill="url(#g2)"/>
  <path fill-rule="evenodd" clip-rule="evenodd" d="M92.2357 67.3585C92.3255 66.595 92.4127 65.8098 92.5 65V8C86.9304 8 81.589 10.2125 77.6507 14.1508C75.5182 16.5576 73.6367 19.7721 72.533 23.1057C71.8806 25.0763 71.5 27.0884 71.5 29C71.5 31.1412 71.827 33.2486 72.4533 35.2556C68.6451 31.3938 63.3521 29 57.5 29C53.357 29 49.4943 30.1997 46.2402 32.2707C40.3847 35.9972 36.5 42.545 36.5 50C36.5 52.2257 36.8462 54.3706 37.4878 56.3836C33.636 51.8653 27.9026 49 21.5 49C19.3039 49 17.2067 49.3006 15.2461 49.8729C13.1327 50.4898 11.1782 51.4223 9.42998 52.6341C4.24359 56.2293 0.873491 62.283 0.560411 69.847L0.580879 69.9944C1.07455 73.5292 1.71241 76.6197 2.82542 79.6167C4.53101 84.2095 7.35237 88.5829 12.4804 94C19.456 100.619 24.0141 103.364 32.9804 107C37.1503 108.243 39.3191 108.8 42.9804 109C43.5448 109.044 44.3484 109.028 45.0695 109.013C45.4007 109.006 45.715 109 45.9804 109C59.2568 107.683 66.3031 104.852 76.9804 97.5C83.516 93 92.988 81.8633 92.4804 70C92.4508 69.259 92.3899 68.532 92.299 67.82C92.2099 68.4408 92.0918 69.054 91.9458 69.6586C92.0473 68.9129 92.1429 68.1473 92.2357 67.3585Z" fill="url(#g1)"/>
  <defs>
    <linearGradient id="g1" x1="64" y1="42" x2="46.2598" y2="109.029" gradientUnits="userSpaceOnUse">
      <stop offset="0.226" stop-color="#89A36E"/>
      <stop offset="1" stop-color="#456042"/>
    </linearGradient>
    <linearGradient id="g2" x1="46" y1="9" x2="48.7838" y2="72.8787" gradientUnits="userSpaceOnUse">
      <stop offset="0.38" stop-color="#85A8EA"/>
      <stop offset="1" stop-color="#094ECE"/>
    </linearGradient>
  </defs>
</svg>
